<svg xmlns="http://www.w3.org/2000/svg" xmlns:xlink="http://www.w3.org/1999/xlink" width="64" height="65" xml:space="preserve"><g transform="translate(-1011 -66)"><path d="M61.294 39.438C61.0338 39.5233 60.7842 39.6381 60.55 39.78 60.0237 40.1097 59.5743 40.5485 59.232 41.0667 60.0322 41.5303 60.6043 42.3049 60.812 43.206 61.2207 42.3253 61.6167 42.2127 61.6167 40.6647 61.6241 40.2339 61.5125 39.8094 61.294 39.438Z" transform="matrix(1 0 0 1.01562 1011 66)"></path><path d="M60.588 38.2793C59.8693 35.37 56.8 33.546 54.2833 33.2287 52.4977 32.981 50.6799 33.1151 48.95 33.622L47.75 34.028C44.6667 28.544 45.452 21.8667 44.9113 19.17 44.498 17.1093 41.158 10.8887 39.6233 7.77 39.1629 6.8116 38.2424 6.15695 37.186 6.03667 36.9993 6.018 36.8133 6.00333 36.628 5.99267 36.2609 5.96405 35.9401 6.23842 35.9115 6.60549 35.9013 6.73687 35.9302 6.8684 35.9947 6.98333L38.95 12.2593 33.8587 6.404C33.7065 6.22769 33.4739 6.14289 33.244 6.18 33.0613 6.21155 32.8795 6.246 32.6987 6.28333 31.9791 6.43971 31.5225 7.1498 31.6789 7.8694 31.7089 8.00733 31.7605 8.1396 31.832 8.26133L33.5287 11.174 29.9953 7.61067C29.7953 7.40713 29.4878 7.35353 29.2307 7.47733 28.9933 7.5938 28.7593 7.71667 28.5287 7.846 27.8803 8.2028 27.6439 9.01767 28.0007 9.666 28.0494 9.75453 28.108 9.83727 28.1753 9.91267L30.1633 12.1333 26.6053 9.77267C26.3528 9.6034 26.0177 9.6264 25.7907 9.82867 25.6489 9.958 25.5093 10.09 25.372 10.2247 24.5844 11.0023 24.5763 12.2711 25.3539 13.0587 25.4703 13.1766 25.6009 13.2796 25.7427 13.3653L29.2667 15.4987C31.1106 16.6138 32.6381 18.1828 33.7033 20.056L35.6367 23.4527C37.2805 26.3399 39.4972 28.8606 42.1507 30.86L45.1907 33.152 46.3027 34.0187C46.4897 34.1646 46.5883 34.3967 46.5633 34.6327L46.3573 36.59 50.5267 37.2387C50.8905 37.2949 51.1399 37.6355 51.0836 37.9994 51.0811 38.0151 51.0782 38.0306 51.0747 38.046L50.4807 40.646 52.3013 40.9913C52.6518 40.7291 53.0791 40.5902 53.5167 40.596L57.6167 40.6627C57.7073 40.6627 57.7967 40.674 57.8873 40.68 58.3633 39.8452 59.0405 39.1427 59.8573 38.6367 60.0909 38.4981 60.3353 38.3786 60.588 38.2793Z" transform="matrix(1 0 0 1.01562 1011 66)"></path><path d="M12.2973 30.2333C12.938 30.8296 13.7333 31.2339 14.5927 31.4L17.6707 32 15.9907 32.1653C15.6242 32.2009 15.356 32.5269 15.3915 32.8933 15.4073 33.0552 15.4817 33.2058 15.6007 33.3167L15.92 33.614C16.6517 34.2969 17.5608 34.7601 18.5433 34.9507L20.3373 35.2987 19.5713 35.4047C19.2063 35.4526 18.9492 35.7873 18.9971 36.1524 19.0197 36.3245 19.1085 36.481 19.2447 36.5887 21.435 38.3717 23.813 39.9107 26.3367 41.1787L36 46.032C33.4693 49.3555 29.7443 51.5634 25.614 52.188 28.1041 55.2298 31.7559 57.0879 35.6807 57.31L37.912 54 37.6773 57.2713C39.1591 57.151 40.6123 56.7952 41.982 56.2173 41.5299 54.5616 41.3906 52.8361 41.5713 51.1293 42.238 50.844 42.8547 50.5567 43.43 50.2627L44.758 52.2547C45.0483 52.6874 45.5256 52.9579 46.046 52.9847L47.4513 55.0933C47.466 55.1147 47.486 55.1307 47.502 55.1513L46.8667 55.8833C46.4841 56.2816 46.4968 56.9147 46.8951 57.2973 47.2933 57.6799 47.9264 57.6671 48.309 57.2689 48.3301 57.2469 48.3503 57.2239 48.3693 57.2L52.7373 52.2087 53.6167 52.2087C54.1689 52.2087 54.6167 51.7609 54.6167 51.2087 54.6167 50.6564 54.1689 50.2087 53.6167 50.2087L52.4993 50.2087C52.0737 50.2085 51.6688 50.3923 51.3887 50.7127L50.7513 51.4407 49.7633 49.9587C50.038 49.4248 50.0023 48.7841 49.67 48.284L48.496 46.5227C49.6479 45.2016 50.6365 43.7467 51.4407 42.1893L49.552 41.8307C49.1903 41.7619 48.9529 41.4129 49.0217 41.0511 49.0232 41.0432 49.0249 41.0353 49.0267 41.0273L49.6153 38.4513 44.876 37.714 45.2293 34.8527 39.7333 30.7067C38 29.4004 36.5523 27.7533 35.4793 25.8667L32.54 20.702C31.5904 19.0319 30.2298 17.6321 28.5873 16.6353L16.6493 9.39133C15.0951 8.44173 13.2866 7.9926 11.4687 8.10467 11.0641 8.12393 10.7518 8.46753 10.7711 8.87207 10.7831 9.12453 10.9243 9.353 11.1447 9.47667L16.6667 12.6667 7.57 9.53333C7.38153 9.46833 7.17393 9.49107 7.004 9.59533L7.004 9.59533C6.40003 9.96693 6.21167 10.7578 6.58329 11.3618 6.69473 11.5429 6.84933 11.6935 7.03333 11.8L12 14.6667 4.99533 12.2513C4.70847 12.1522 4.39086 12.2593 4.22267 12.512L4.22267 12.512C3.66569 13.3492 3.89285 14.4793 4.73002 15.0363 4.76289 15.0582 4.79645 15.079 4.83067 15.0987L9.34067 17.692 3.78733 16.1867C3.42777 16.0917 3.05936 16.3063 2.96446 16.6659 2.95305 16.7091 2.94597 16.7533 2.94333 16.798 2.93711 16.8842 2.93245 16.9702 2.92933 17.056 2.88722 18.007 3.42104 18.89 4.28267 19.2947L8.66667 21.3473 4.47067 20.718C4.10698 20.6606 3.76561 20.9089 3.7082 21.2725 3.68906 21.3938 3.70376 21.5179 3.75067 21.6313 3.80667 21.7647 3.86667 21.898 3.92867 22.0313 4.40174 23.0127 5.25872 23.7553 6.29733 24.084L10.168 25.3333 8.13333 25.2073C7.76573 25.186 7.45047 25.4667 7.42913 25.8342 7.41693 26.0447 7.505 26.2486 7.66667 26.384L8.12067 26.7633C8.71013 27.2352 9.4054 27.5569 10.1467 27.7007L14.3907 28.524 12.2247 28.6527C11.8571 28.6745 11.5769 28.9903 11.5988 29.3578 11.6094 29.5356 11.6907 29.7019 11.8247 29.8193ZM48.8593 53.6 47.712 51.8793C47.8403 51.5154 47.8377 51.1182 47.7047 50.756 47.7823 50.787 47.862 50.8122 47.9433 50.8313L49.3873 53Z" transform="matrix(1 0 0 1.01562 1011 66)"></path></g></svg>