<svg xmlns="http://www.w3.org/2000/svg" xmlns:xlink="http://www.w3.org/1999/xlink" width="49" height="50" xml:space="preserve"><g transform="translate(-1094 -74)"><path d="M38.2812 7.65625 10.7188 7.65625 1.53125 19.3958 24.5 42.3646 24.5 42.3646 47.4688 19.3958ZM15.6647 20.4167 22.3563 35.8925 6.88042 20.4167ZM31.1354 20.4167 24.5 35.7292 17.8646 20.4167ZM17.7166 18.375 20.0696 10.7188 28.9304 10.7188 31.2834 18.375ZM33.3353 20.4167 42.1145 20.4167 26.654 35.8772ZM42.7831 18.375 33.4221 18.375 31.064 10.7188 36.7908 10.7188ZM12.2092 10.7188 17.936 10.7188 15.5779 18.375 6.21688 18.375Z" transform="matrix(1 0 0 1.02041 1094 74)"></path></g></svg>